<svg width="37" height="40" viewBox="0 0 37 40" fill="none" xmlns="http://www.w3.org/2000/svg">
<path d="M35.7438 21.9341C36.5291 20.7703 36.9213 19.4892 36.9213 18.0899C36.9213 16.4703 36.313 15.0635 35.0954 13.8674C33.8772 12.6725 32.4348 12.0752 30.7684 12.0752H26.5376C27.3066 10.5188 27.6918 9.00917 27.6918 7.54715C27.6918 5.70747 27.4106 4.24537 26.8502 3.16045C26.2893 2.07519 25.4718 1.27748 24.398 0.766239C23.324 0.255248 22.1145 0 20.7684 0C19.9507 0 19.2298 0.29085 18.6049 0.872799C17.9159 1.53306 17.4191 2.38231 17.1147 3.42007C16.8102 4.4575 16.5657 5.45214 16.3816 6.40341C16.1975 7.3546 15.9127 8.02676 15.5283 8.41979C14.7429 9.2531 13.8856 10.2596 12.9561 11.4387C11.3376 13.4982 10.2397 14.7169 9.66308 15.0944H3.07683C2.22749 15.0944 1.50226 15.3896 0.901286 15.9788C0.300569 16.5685 0 17.2799 0 18.1133V33.2071C0 34.0405 0.300232 34.7517 0.901286 35.3414C1.50259 35.9311 2.22749 36.2262 3.07683 36.2262H9.99926C10.3519 36.2262 11.4574 36.5406 13.3164 37.1695C15.2876 37.8457 17.0223 38.3605 18.5205 38.7144C20.0189 39.0683 21.5373 39.2453 23.0759 39.2453H25.3108H26.1766C28.436 39.2453 30.2547 38.612 31.6331 37.3462C33.0109 36.0804 33.6923 34.3549 33.6764 32.1694C34.6379 30.9587 35.1186 29.5593 35.1186 27.9715C35.1186 27.6258 35.0949 27.2878 35.0466 26.9573C35.6553 25.9043 35.9604 24.7722 35.9604 23.5614C35.9602 22.9953 35.8882 22.4526 35.7438 21.9341ZM5.697 32.7593C5.39256 33.0578 5.03205 33.2076 4.61538 33.2076C4.19862 33.2076 3.83802 33.0579 3.5335 32.7593C3.22914 32.4608 3.07683 32.1069 3.07683 31.6978C3.07683 31.2891 3.2288 30.9354 3.5335 30.6366C3.83836 30.3378 4.19862 30.1885 4.61538 30.1885C5.03205 30.1885 5.39256 30.3378 5.697 30.6366C6.00153 30.9354 6.15383 31.289 6.15383 31.6978C6.15383 32.1069 6.00153 32.4608 5.697 32.7593ZM33.3288 20.0249C32.9842 20.748 32.5554 21.1175 32.0427 21.133C32.283 21.4004 32.4834 21.7742 32.6437 22.2533C32.8039 22.733 32.8834 23.1691 32.8834 23.5624C32.8834 24.6468 32.4593 25.5825 31.6099 26.3684C31.8987 26.8713 32.0428 27.414 32.0428 27.9955C32.0428 28.5773 31.9027 29.1551 31.6221 29.7288C31.342 30.3021 30.9611 30.715 30.4806 30.9664C30.5606 31.438 30.6004 31.8784 30.6004 32.2871C30.6004 34.9127 29.0618 36.2255 25.9846 36.2255H23.077C20.9772 36.2255 18.2373 35.652 14.8557 34.504C14.7754 34.4726 14.5434 34.3897 14.1586 34.2563C13.7737 34.1229 13.4894 34.0245 13.305 33.9618C13.1206 33.8985 12.8404 33.8081 12.4636 33.6905C12.0868 33.5723 11.7827 33.4857 11.5502 33.4309C11.318 33.3761 11.0534 33.3249 10.7572 33.2777C10.4608 33.2305 10.2083 33.2071 10 33.2071H9.23083V18.1139H10C10.2564 18.1139 10.5408 18.043 10.8533 17.9018C11.1658 17.7602 11.4864 17.548 11.8149 17.2649C12.1435 16.9818 12.4517 16.7028 12.7403 16.4275C13.0289 16.1524 13.3493 15.8065 13.702 15.39C14.0545 14.9732 14.3309 14.6392 14.5314 14.3876C14.7316 14.1361 14.9839 13.8136 15.2884 13.4206C15.5928 13.0276 15.7773 12.7917 15.8413 12.713C16.7226 11.644 17.3395 10.9286 17.6921 10.5668C18.3491 9.89097 18.8258 9.03015 19.1222 7.98455C19.419 6.93877 19.6634 5.95215 19.855 5.02466C20.0471 4.0971 20.352 3.42866 20.7691 3.01985C22.3072 3.01985 23.3331 3.38918 23.8457 4.12824C24.3583 4.86714 24.6147 6.00716 24.6147 7.54798C24.6147 8.47555 24.2298 9.73725 23.4605 11.333C22.6914 12.9289 22.3072 14.1829 22.3072 15.0947H30.7682C31.5703 15.0947 32.283 15.3972 32.9078 16.0029C33.533 16.6081 33.8459 17.3116 33.8459 18.1137C33.8457 18.6639 33.6733 19.3008 33.3288 20.0249Z" fill="url(#paint0_linear_2513_11)"/>
<defs>
<linearGradient id="paint0_linear_2513_11" x1="18.4607" y1="0" x2="18.4607" y2="39.2453" gradientUnits="userSpaceOnUse">
<stop offset="0.0260417" stop-color="#00CCFF" stop-opacity="0.46"/>
<stop offset="0.505208" stop-color="#00FF99" stop-opacity="0.75"/>
<stop offset="0.947917" stop-color="#FFF35C" stop-opacity="0.77"/>
</linearGradient>
</defs>
</svg>
